<svg width="500" height="501" viewBox="0 0 500 501" fill="none" xmlns="http://www.w3.org/2000/svg">
<circle cx="250" cy="250" r="250" fill="#4BBD35"/>
<path fill-rule="evenodd" clip-rule="evenodd" d="M330.276 265.123C325.257 302.057 304.731 332.305 277.46 344.809V365.628C313.457 369.945 339.46 382.359 339.46 397C339.46 415.225 299.166 430 249.46 430C199.755 430 159.46 415.225 159.46 397C159.46 382.495 184.983 370.176 220.46 365.751V344.341C193.848 331.638 173.842 301.961 168.734 265.775C162.518 264.433 156.539 257.893 154.091 248.954C150.981 237.598 154.746 226.672 162.499 224.548C164.766 223.927 167.124 224.128 169.402 225.006C177.539 178.661 210.293 144 249.46 144C288.479 144 321.132 178.398 329.424 224.479C331.837 223.453 334.35 223.185 336.761 223.845C344.515 225.968 348.279 236.895 345.17 248.25C342.689 257.309 336.582 263.904 330.276 265.123Z" fill="#F1C9A5"/>
<path fill-rule="evenodd" clip-rule="evenodd" d="M250 429.997C299.457 429.891 339.46 415.157 339.46 396.998C339.46 382.357 313.457 369.943 277.46 365.626V344.807C304.731 332.303 325.257 302.055 330.276 265.12C336.582 263.902 342.689 257.307 345.17 248.248C348.279 236.893 344.515 225.966 336.761 223.843C334.35 223.182 331.837 223.451 329.424 224.477C321.17 178.608 288.78 144.316 250 144V429.997Z" fill="#EFC19D"/>
<path fill-rule="evenodd" clip-rule="evenodd" d="M219.5 268C230.538 268 239 259.908 239 250.5C239 241.092 230.538 233 219.5 233C208.462 233 200 241.092 200 250.5C200 259.908 208.462 268 219.5 268ZM219.5 271C231.926 271 242 261.822 242 250.5C242 249.307 241.888 248.137 241.673 247H257.327C257.112 248.137 257 249.307 257 250.5C257 261.822 267.074 271 279.5 271C291.926 271 302 261.822 302 250.5C302 239.178 291.926 230 279.5 230C269.567 230 261.138 235.864 258.155 244H240.845C237.862 235.864 229.433 230 219.5 230C207.074 230 197 239.178 197 250.5C197 261.822 207.074 271 219.5 271ZM279.5 268C290.538 268 299 259.908 299 250.5C299 241.092 290.538 233 279.5 233C268.462 233 260 241.092 260 250.5C260 259.908 268.462 268 279.5 268Z" fill="black"/>
<path d="M202.313 201.297C190.109 201.641 168.313 225.797 168.313 225.797C168.313 225.797 156.016 191.386 163.313 171.297C172.435 146.186 192.173 138.336 217.313 129.297C244.692 119.454 265.409 117.079 291.813 129.297C317.954 141.393 338.18 156.54 339.813 185.297C340.752 201.823 327.313 225.797 327.313 225.797C320.475 217.996 317.65 207.385 312.313 201.297C306.831 195.042 303.839 194.812 296.813 186.797C296.813 186.797 279.813 195.797 273.313 195.797L271.028 196.048C264.577 197.066 248.608 200.812 232.313 200.297C218.714 199.867 207.431 201.153 202.313 201.297Z" fill="#1A1A1A"/>
<path fill-rule="evenodd" clip-rule="evenodd" d="M129 403.507C116.214 421.553 113 458.507 113 458.507C113 458.507 136 477.007 178 489.507C220 502.007 249.5 499.507 249.5 499.507V403.507C214.332 403.507 211.192 385.398 208.326 368.87C208.223 368.274 208.12 367.68 208.016 367.089C208.24 367.029 208.243 367 208 367L208.016 367.089C207.683 367.179 206.865 367.338 205.639 367.577C194.072 369.829 146.266 379.138 129 403.507ZM370.5 403.507C383.286 421.553 386.5 458.507 386.5 458.507C386.5 458.507 363.5 477.007 321.5 489.507C279.5 502.007 250 499.507 250 499.507V403.507C285.168 403.507 288.308 385.398 291.174 368.87C291.277 368.274 291.38 367.68 291.484 367.089C291.817 367.179 292.635 367.338 293.861 367.577C305.428 369.829 353.234 379.138 370.5 403.507ZM291.5 367C291.257 367 291.26 367.029 291.484 367.089L291.5 367Z" fill="#574E3F"/>
<path d="M113 458.507L112.502 458.464L112.479 458.729L112.687 458.897L113 458.507ZM129 403.507L129.408 403.796L129 403.507ZM249.5 499.507L249.542 500.005L250 499.966V499.507H249.5ZM249.5 403.507H250V403.007H249.5V403.507ZM208.326 368.87L207.833 368.955V368.955L208.326 368.87ZM208 367V366.5H207.404L207.508 367.087L208 367ZM205.639 367.577L205.734 368.068L205.639 367.577ZM386.5 458.507L386.813 458.897L387.021 458.729L386.998 458.464L386.5 458.507ZM370.5 403.507L370.092 403.796L370.5 403.507ZM250 499.507H249.5V499.966L249.958 500.005L250 499.507ZM250 403.507V403.007H249.5V403.507H250ZM291.174 368.87L290.681 368.785V368.785L291.174 368.87ZM293.861 367.577L293.766 368.068L293.861 367.577ZM291.5 367L291.992 367.087L292.096 366.5H291.5V367ZM113 458.507C113.498 458.55 113.498 458.55 113.498 458.55C113.498 458.55 113.498 458.549 113.498 458.549C113.498 458.548 113.498 458.546 113.499 458.544C113.499 458.54 113.5 458.533 113.5 458.525C113.502 458.507 113.504 458.481 113.508 458.446C113.514 458.377 113.524 458.273 113.537 458.136C113.563 457.863 113.604 457.459 113.66 456.938C113.773 455.896 113.948 454.386 114.198 452.517C114.697 448.78 115.497 443.609 116.695 437.877C119.095 426.391 123.079 412.729 129.408 403.796L128.592 403.218C122.135 412.331 118.119 426.169 115.716 437.672C114.512 443.434 113.709 448.629 113.206 452.385C112.955 454.263 112.779 455.781 112.666 456.83C112.609 457.355 112.568 457.763 112.542 458.039C112.528 458.178 112.518 458.283 112.512 458.355C112.508 458.39 112.506 458.417 112.504 458.436C112.504 458.445 112.503 458.452 112.503 458.456C112.502 458.459 112.502 458.461 112.502 458.462C112.502 458.462 112.502 458.463 112.502 458.463C112.502 458.464 112.502 458.464 113 458.507ZM178.143 489.028C157.183 482.79 140.967 475.056 129.995 468.884C124.509 465.798 120.334 463.103 117.533 461.181C116.132 460.22 115.075 459.452 114.369 458.926C114.016 458.662 113.751 458.459 113.575 458.323C113.487 458.254 113.421 458.203 113.377 458.168C113.355 458.151 113.339 458.138 113.328 458.13C113.323 458.125 113.319 458.122 113.317 458.12C113.315 458.119 113.315 458.118 113.314 458.118C113.314 458.118 113.314 458.118 113.313 458.117C113.313 458.117 113.313 458.117 113 458.507C112.687 458.897 112.687 458.897 112.687 458.897C112.687 458.897 112.688 458.898 112.688 458.898C112.689 458.899 112.69 458.899 112.692 458.901C112.695 458.903 112.699 458.907 112.705 458.911C112.717 458.921 112.734 458.935 112.757 458.953C112.803 458.989 112.872 459.043 112.962 459.113C113.143 459.253 113.413 459.46 113.771 459.727C114.487 460.261 115.555 461.037 116.967 462.005C119.791 463.943 123.991 466.654 129.505 469.755C140.533 475.958 156.817 483.724 177.857 489.986L178.143 489.028ZM249.5 499.507C249.458 499.009 249.458 499.009 249.458 499.009C249.458 499.009 249.457 499.009 249.457 499.009C249.456 499.009 249.455 499.009 249.453 499.009C249.45 499.009 249.445 499.01 249.438 499.01C249.425 499.011 249.404 499.013 249.376 499.015C249.32 499.019 249.237 499.026 249.125 499.033C248.901 499.048 248.567 499.069 248.126 499.091C247.243 499.134 245.933 499.183 244.229 499.202C240.82 499.241 235.834 499.164 229.537 498.696C216.942 497.761 199.103 495.266 178.143 489.028L177.857 489.986C198.897 496.248 216.808 498.753 229.463 499.693C235.791 500.163 240.805 500.242 244.24 500.202C245.958 500.183 247.28 500.134 248.175 500.089C248.622 500.067 248.963 500.046 249.192 500.031C249.307 500.023 249.394 500.017 249.452 500.012C249.481 500.01 249.504 500.008 249.519 500.007C249.526 500.007 249.532 500.006 249.536 500.006C249.538 500.006 249.539 500.005 249.54 500.005C249.541 500.005 249.541 500.005 249.542 500.005C249.542 500.005 249.542 500.005 249.5 499.507ZM249 403.507V499.507H250V403.507H249ZM207.833 368.955C209.262 377.192 210.776 385.994 216.417 392.708C222.086 399.456 231.833 404.007 249.5 404.007V403.007C231.998 403.007 222.592 398.503 217.183 392.065C211.745 385.592 210.256 377.075 208.819 368.785L207.833 368.955ZM207.523 367.176C207.627 367.766 207.73 368.359 207.833 368.955L208.819 368.785C208.715 368.189 208.612 367.594 208.508 367.003L207.523 367.176ZM208 367.5C208.056 367.5 208.077 367.502 208.077 367.502C208.075 367.502 208.069 367.501 208.059 367.499C208.05 367.497 208.029 367.493 208.003 367.483C207.982 367.476 207.928 367.455 207.869 367.409C207.808 367.36 207.705 367.252 207.686 367.076C207.667 366.903 207.742 366.778 207.786 366.721C207.83 366.665 207.875 366.633 207.893 366.621C207.915 366.606 207.932 366.597 207.94 366.593C207.949 366.589 207.955 366.586 207.956 366.586C207.956 366.586 207.937 366.593 207.885 366.607L208.146 367.572C208.206 367.556 208.272 367.537 208.328 367.514C208.352 367.504 208.402 367.483 208.454 367.448C208.479 367.431 208.529 367.395 208.576 367.335C208.623 367.274 208.699 367.145 208.68 366.968C208.66 366.788 208.555 366.676 208.49 366.625C208.428 366.575 208.367 366.551 208.338 366.541C208.278 366.52 208.222 366.512 208.196 366.509C208.135 366.502 208.065 366.5 208 366.5V367.5ZM208.508 367.003L208.492 366.913L207.508 367.087L207.523 367.176L208.508 367.003ZM205.734 368.068C206.946 367.832 207.791 367.668 208.146 367.572L207.885 366.607C207.576 366.69 206.783 366.845 205.543 367.086L205.734 368.068ZM129.408 403.796C137.948 391.743 154.089 383.367 169.627 377.718C185.144 372.078 199.954 369.194 205.734 368.068L205.543 367.086C199.757 368.213 184.881 371.109 169.286 376.778C153.713 382.439 137.319 390.902 128.592 403.218L129.408 403.796ZM386.5 458.507C386.998 458.464 386.998 458.464 386.998 458.463C386.998 458.463 386.998 458.462 386.998 458.462C386.998 458.461 386.998 458.459 386.997 458.456C386.997 458.452 386.996 458.445 386.996 458.436C386.994 458.417 386.992 458.39 386.988 458.355C386.982 458.283 386.972 458.178 386.958 458.039C386.932 457.763 386.891 457.355 386.834 456.83C386.721 455.781 386.545 454.263 386.294 452.385C385.791 448.629 384.988 443.434 383.784 437.672C381.381 426.169 377.365 412.331 370.908 403.218L370.092 403.796C376.421 412.729 380.405 426.391 382.805 437.877C384.003 443.609 384.803 448.78 385.302 452.517C385.552 454.386 385.727 455.896 385.84 456.938C385.896 457.459 385.937 457.863 385.963 458.136C385.976 458.273 385.986 458.377 385.992 458.446C385.996 458.481 385.998 458.507 386 458.525C386 458.533 386.001 458.54 386.001 458.544C386.002 458.546 386.002 458.548 386.002 458.549C386.002 458.549 386.002 458.55 386.002 458.55C386.002 458.55 386.002 458.55 386.5 458.507ZM321.643 489.986C342.683 483.724 358.967 475.958 369.995 469.755C375.509 466.654 379.709 463.943 382.533 462.005C383.945 461.037 385.013 460.261 385.729 459.727C386.087 459.46 386.357 459.253 386.538 459.113C386.628 459.043 386.697 458.989 386.743 458.953C386.766 458.935 386.783 458.921 386.795 458.911C386.801 458.907 386.805 458.903 386.808 458.901C386.81 458.899 386.811 458.899 386.812 458.898C386.812 458.898 386.813 458.897 386.813 458.897C386.813 458.897 386.813 458.897 386.5 458.507C386.187 458.117 386.187 458.117 386.187 458.117C386.186 458.118 386.186 458.118 386.186 458.118C386.185 458.118 386.185 458.119 386.183 458.12C386.181 458.122 386.177 458.125 386.172 458.13C386.161 458.138 386.145 458.151 386.123 458.168C386.079 458.203 386.013 458.254 385.925 458.323C385.749 458.459 385.484 458.662 385.131 458.926C384.425 459.452 383.368 460.22 381.967 461.181C379.166 463.103 374.991 465.798 369.505 468.884C358.533 475.056 342.317 482.79 321.357 489.028L321.643 489.986ZM250 499.507C249.958 500.005 249.958 500.005 249.958 500.005C249.959 500.005 249.959 500.005 249.96 500.005C249.961 500.005 249.962 500.006 249.964 500.006C249.968 500.006 249.974 500.007 249.981 500.007C249.996 500.008 250.019 500.01 250.048 500.012C250.106 500.017 250.193 500.023 250.308 500.031C250.537 500.046 250.878 500.067 251.325 500.089C252.22 500.134 253.542 500.183 255.26 500.202C258.695 500.242 263.709 500.163 270.037 499.693C282.692 498.753 300.603 496.248 321.643 489.986L321.357 489.028C300.397 495.266 282.558 497.761 269.963 498.696C263.666 499.164 258.68 499.241 255.271 499.202C253.567 499.183 252.257 499.134 251.374 499.091C250.933 499.069 250.599 499.048 250.375 499.033C250.263 499.026 250.18 499.019 250.124 499.015C250.096 499.013 250.075 499.011 250.062 499.01C250.055 499.01 250.05 499.009 250.047 499.009C250.045 499.009 250.044 499.009 250.043 499.009C250.043 499.009 250.042 499.009 250.042 499.009C250.042 499.009 250.042 499.009 250 499.507ZM249.5 403.507V499.507H250.5V403.507H249.5ZM290.681 368.785C289.244 377.075 287.755 385.592 282.317 392.065C276.908 398.503 267.501 403.007 250 403.007V404.007C267.667 404.007 277.414 399.456 283.083 392.708C288.724 385.994 290.238 377.192 291.667 368.955L290.681 368.785ZM290.992 367.003C290.888 367.594 290.785 368.189 290.681 368.785L291.667 368.955C291.77 368.359 291.873 367.766 291.977 367.176L290.992 367.003ZM293.957 367.086C292.717 366.845 291.924 366.69 291.615 366.607L291.354 367.572C291.709 367.668 292.554 367.832 293.766 368.068L293.957 367.086ZM370.908 403.218C362.181 390.902 345.787 382.439 330.214 376.778C314.619 371.109 299.743 368.213 293.957 367.086L293.766 368.068C299.546 369.194 314.356 372.078 329.873 377.718C345.411 383.367 361.552 391.743 370.092 403.796L370.908 403.218ZM291.5 366.5C291.435 366.5 291.365 366.502 291.304 366.509C291.278 366.512 291.222 366.52 291.162 366.541C291.133 366.551 291.072 366.575 291.01 366.625C290.945 366.676 290.84 366.788 290.82 366.968C290.801 367.145 290.877 367.274 290.924 367.335C290.971 367.395 291.021 367.431 291.046 367.448C291.098 367.483 291.148 367.504 291.172 367.514C291.228 367.537 291.294 367.556 291.354 367.572L291.615 366.607C291.563 366.593 291.544 366.586 291.544 366.586C291.545 366.586 291.551 366.589 291.56 366.593C291.568 366.597 291.585 366.606 291.607 366.621C291.625 366.633 291.67 366.665 291.714 366.721C291.758 366.778 291.833 366.903 291.814 367.076C291.795 367.252 291.692 367.36 291.631 367.409C291.572 367.455 291.518 367.476 291.497 367.483C291.471 367.493 291.45 367.497 291.441 367.499C291.431 367.501 291.425 367.502 291.423 367.502C291.423 367.502 291.444 367.5 291.5 367.5V366.5ZM291.977 367.176L291.992 367.087L291.008 366.913L290.992 367.003L291.977 367.176Z" fill="#574E3F"/>
</svg>
