<svg width="227" height="358" viewBox="0 0 227 358" fill="none" xmlns="http://www.w3.org/2000/svg">
<path d="M209.809 23.2002L94.8086 3.90983C82.6118 1.86391 71.5 11.267 71.5 23.6343V104.5C71.5 115.546 80.4543 124.5 91.5 124.5H206.5C217.546 124.5 226.5 115.546 226.5 104.5V42.9246C226.5 33.1557 219.443 24.8162 209.809 23.2002Z" fill="#9C36B5"/>
<path d="M206.049 131.962L91.0485 134.559C80.1815 134.804 71.5 143.684 71.5 154.553V332.183C71.5 345.257 83.8383 354.816 96.4976 351.549L211.498 321.872C220.329 319.592 226.5 311.627 226.5 302.506V151.957C226.5 140.734 217.268 131.708 206.049 131.962Z" fill="#9C36B5"/>
<path d="M36.4045 8.85056L13.9045 16.0506C5.62089 18.7013 0 26.4017 0 35.0991V308.778C0 316.017 3.9118 322.691 10.2279 326.228L32.7279 338.828C46.0596 346.293 62.5 336.657 62.5 321.378V27.899C62.5 14.3491 49.3098 4.72087 36.4045 8.85056Z" fill="#9C36B5"/>
<rect x="91" y="40" width="11" height="51" rx="5" fill="white"/>
<rect x="91" y="179" width="11" height="51" rx="5" fill="white"/>
<path fill-rule="evenodd" clip-rule="evenodd" d="M176.468 190.542C183.494 193.795 193.559 190.802 200.638 182.827C208.833 173.594 209.922 161.181 203.072 155.101C196.221 149.02 184.025 151.575 175.831 160.808C168.881 168.638 167.042 178.756 170.822 185.358C170.529 185.548 170.256 185.781 170.012 186.055L159.787 197.575L151.219 189.97C151.236 189.867 151.244 189.761 151.242 189.655C151.201 186.838 150.722 176.854 146.087 173.297C141.421 169.716 126.79 159.702 122.809 156.984C122.226 156.586 121.449 156.691 120.98 157.219C120.455 157.81 120.522 158.718 121.128 159.226L141.818 176.583C142.696 177.32 142.777 178.641 141.995 179.479L141.217 180.314L118.46 160.115L116.632 162.175L139.339 182.329L137.399 184.41L114.562 164.14L112.734 166.2L135.521 186.425L134.592 187.422C133.837 188.232 132.567 188.274 131.76 187.516L112.273 169.215C111.653 168.633 110.669 168.699 110.133 169.359C109.685 169.91 109.696 170.702 110.161 171.238C112.896 174.39 122.035 184.887 128.394 191.764C135.031 198.941 143.768 196.68 145.793 196.025C145.869 196 145.942 195.97 146.013 195.935L154.532 203.496L124.566 237.257C123.115 238.892 123.264 241.394 124.899 242.845C126.534 244.296 129.036 244.147 130.487 242.512L160.453 208.751L194.213 238.717C195.848 240.168 198.35 240.019 199.801 238.384C201.253 236.749 201.104 234.247 199.469 232.796L165.708 202.83L175.933 191.31C176.146 191.071 176.324 190.812 176.468 190.542Z" fill="white"/>
</svg>
