<svg width="1226" height="1090" viewBox="0 0 1226 1090" fill="none" xmlns="http://www.w3.org/2000/svg">
<g clip-path="url(#clip0_38_61)">
<path fill-rule="evenodd" clip-rule="evenodd" d="M136.222 127.734C136.222 57.1888 193.399 0 263.931 0H1098.29C1168.83 0 1226 57.1888 1226 127.734V962.266C1226 1032.81 1168.83 1090 1098.29 1090H263.931C193.399 1090 136.222 1032.81 136.222 962.266V902.656H63.8542C28.5884 902.656 0 874.061 0 838.789V694.023C0 658.752 28.5884 630.156 63.8542 630.156H136.222V459.844H63.8542C28.5884 459.844 0 431.248 0 395.977V251.211C0 215.938 28.5884 187.344 63.8542 187.344H136.222V127.734Z" fill="#9C36B5"/>
<path fill-rule="evenodd" clip-rule="evenodd" d="M773.525 503.729C819.998 528.705 889.68 512.423 941.061 461.032C1000.54 401.537 1012.98 317.522 968.846 273.378C924.71 229.233 840.712 241.675 781.234 301.169C730.785 351.625 714.175 419.721 737.218 466.171C735.144 467.346 733.195 468.819 731.428 470.586L657.204 544.821L602.166 489.768C602.174 489.648 602.187 489.525 602.192 489.406C603.043 473.418 605.056 401.142 573.849 374.09C543.28 347.592 446.315 272.394 421.403 253.122C418.017 250.502 413.257 250.845 410.23 253.872L408.813 255.289C405.423 258.68 405.5 264.202 408.984 267.497L547.392 398.422C550.934 401.774 550.946 407.412 547.413 410.776L537.882 419.857L391.263 273.211L377.995 286.482L524.289 432.807L510.25 446.18L363.116 299.017L349.848 312.287L496.658 459.124L486.215 469.075C482.801 472.323 477.395 472.183 474.155 468.755L344.404 331.471C341.009 327.879 335.28 327.923 331.941 331.566L330.043 333.637C327.253 336.681 327.01 341.237 329.525 344.512C345.826 365.737 404.917 442.434 446.017 492.565C489.51 545.617 552.202 531.481 563.768 528.301C563.93 528.258 564.088 528.207 564.245 528.152L619.058 582.975L401.549 800.533C391.015 811.066 391.015 828.149 401.549 838.687C412.082 849.221 429.16 849.221 439.695 838.687L657.204 621.13L874.717 838.687C885.249 849.221 902.327 849.221 912.863 838.687C923.395 828.149 923.395 811.066 912.863 800.533L695.35 582.975L769.575 508.74C771.116 507.195 772.435 505.513 773.525 503.729Z" fill="white"/>
<path d="M1149.37 451.328C1149.37 427.813 1130.32 408.75 1106.81 408.75C1083.3 408.75 1064.24 427.813 1064.24 451.328V638.672C1064.24 662.187 1083.3 681.25 1106.81 681.25C1130.32 681.25 1149.37 662.187 1149.37 638.672V451.328Z" fill="white"/>
</g>
<defs>
<clipPath id="clip0_38_61">
<rect width="1226" height="1090" fill="white"/>
</clipPath>
</defs>
</svg>
